<?xml version="1.0" encoding="UTF-8" standalone="no"?>
<svg
  width="400"
  height="400"
  viewBox="0 0 400 400"
  version="1.1"
  id="svg17"
  sodipodi:docname="logo-latest.svg"
  inkscape:version="1.4.3 (0d15f75042, 2025-12-25)"
  xmlns:inkscape="http://www.inkscape.org/namespaces/inkscape"
  xmlns:sodipodi="http://sodipodi.sourceforge.net/DTD/sodipodi-0.dtd"
  xmlns="http://www.w3.org/2000/svg"
  xmlns:svg="http://www.w3.org/2000/svg">
  <defs
    id="defs17" />
  <sodipodi:namedview
    id="namedview17"
    pagecolor="#ffffff"
    bordercolor="#000000"
    borderopacity="0.25"
    inkscape:showpageshadow="2"
    inkscape:pageopacity="0.0"
    inkscape:pagecheckerboard="0"
    inkscape:deskcolor="#d1d1d1"
    showgrid="false"
    inkscape:zoom="1.9825"
    inkscape:cx="123.07692"
    inkscape:cy="187.89407"
    inkscape:window-width="1920"
    inkscape:window-height="1002"
    inkscape:window-x="0"
    inkscape:window-y="0"
    inkscape:window-maximized="1"
    inkscape:current-layer="g11" />
  <style
    id="style1">
    .uniform-line {
    fill: none;
    stroke: #2962FF;       /* Same shade of Blue */
    stroke-width: 4px;     /* Same size for all lines */
    stroke-linecap: round;
    stroke-linejoin: round;
    vector-effect: non-scaling-stroke; /* Prevents lines from getting fat when stretched */
    }
  </style>
  <polygon
    points="200,50 320,125 320,275 200,350 80,275 80,125"
    class="uniform-line"
    id="polygonOuter" />
  <polygon
    points="200,60 310,130 310,270 200,340 90,270 90,130"
    class="uniform-line"
    id="polygonInner" />
  <circle
    cx="86.052963"
    cy="272.47794"
    r="8"
    class="uniform-line"
    id="circle5"
    style="fill:#2962FF;fill-opacity:1" />
  <g
    transform="matrix(1.5682327,0,0,1.1299256,-80.947392,-12.57994)"
    id="g8">
    <line
      x1="131.12494"
      y1="140.97433"
      x2="131.12494"
      y2="242.06197"
      class="uniform-line"
      id="line6"
      style="stroke-width:27.0052;stroke-dasharray:none" />
    <line
      x1="130.64119"
      y1="139.73718"
      x2="168.38937"
      y2="105.96032"
      class="uniform-line"
      id="line7"
      style="stroke-width:23.6481;stroke-dasharray:none" />
    <line
      x1="132.29753"
      y1="187.54359"
      x2="169.77782"
      y2="187.54359"
      class="uniform-line"
      id="line8"
      style="stroke-width:26.2419;stroke-dasharray:none" />
    </g>
    <g
      id="g11"
      transform="translate(0.50441362,1.5132409)">
      <line
        x1="251.3465"
        y1="125.99796"
        x2="251.3465"
        y2="267.43585"
        class="uniform-line"
        id="line9"
        style="stroke-width:29.0105;stroke-dasharray:none" />
      <line
        x1="222.22618"
        y1="105.99915"
        x2="284.50174"
        y2="145.74001"
        class="uniform-line"
        id="line10"
        style="stroke-width:26.6403;stroke-dasharray:none" />
      <line
        x1="217.59143"
        y1="292.11713"
        x2="282.06622"
        y2="248.05074"
        class="uniform-line"
        id="line11"
        style="stroke-width:30;stroke-dasharray:none" />
      </g>
      <path
        style="fill:#2962FF;fill-opacity:1;stroke-width:0.0630517"
        d=""
        id="path56" />
      <path
        style="fill:#2962FF;fill-opacity:1;stroke-width:0.0630517"
        d="m 200.03153,64.66383 c -3.68919,-0.95644 -6.54242,-3.84966 -7.13003,-7.22996 -0.079,-0.45436 -0.0958,-0.84303 -0.0721,-1.66464 0.0388,-1.34408 0.19171,-1.98856 0.73301,-3.08953 0.48766,-0.99188 1.01671,-1.72613 1.86633,-2.59023 1.86803,-1.89985 3.67775,-2.63067 6.2664,-2.53056 2.33393,0.0902 4.14684,0.83137 5.73122,2.3429 0.79299,0.75653 1.32285,1.47717 1.81069,2.46263 0.64404,1.30098 0.84564,2.18582 0.84927,3.72755 0.003,1.36141 -0.22022,2.31804 -0.82469,3.53108 -0.62034,1.24488 -1.84573,2.63751 -3.11963,3.54536 -0.69588,0.49593 -2.02215,1.15249 -2.74428,1.35854 -1.16224,0.33164 -2.41797,0.3827 -3.3662,0.13686 z m 7.03026,-13.11134 c 0,-0.0131 -0.0496,-0.0628 -0.11034,-0.11034 -0.1,-0.0784 -0.10223,-0.0762 -0.0238,0.0238 0.0824,0.10503 0.13414,0.13843 0.13414,0.0865 z"
        id="path69" />
      <path
        style="fill:#2962FF;fill-opacity:1;stroke-width:0.0630517"
        d="m 84.016397,137.8038 c -3.75878,-0.97448 -6.65749,-3.97502 -7.15997,-7.41146 -0.0493,-0.33704 -0.0639,-0.89457 -0.0413,-1.57032 0.043,-1.28416 0.18966,-1.88548 0.73207,-3.00235 0.4752,-0.97848 1.00607,-1.71523 1.86641,-2.59023 1.87079,-1.90266 3.67392,-2.63082 6.2664,-2.53056 2.33393,0.0902 4.14684,0.83137 5.73122,2.3429 0.79232,0.7559 1.32236,1.47648 1.81142,2.46263 0.64629,1.30317 0.8515,2.19938 0.84923,3.70885 -0.001,0.97833 -0.0615,1.44796 -0.28333,2.21825 -0.5035,1.74802 -1.92171,3.63689 -3.66168,4.87689 -0.69588,0.49593 -2.02215,1.15249 -2.74428,1.35854 -1.16224,0.33164 -2.41797,0.3827 -3.3662,0.13686 z"
        id="path70" />
      <circle
        cx="314.46155"
        cy="129.88651"
        r="8"
        class="uniform-line"
        id="circle5-5"
        style="vector-effect:non-scaling-stroke;fill:#2962FF;fill-opacity:1;stroke:#2962FF;stroke-width:4px;stroke-linecap:round;stroke-linejoin:round" />
      <circle
        cx="314.98361"
        cy="271.79572"
        r="8"
        class="uniform-line"
        id="circle5-56"
        style="vector-effect:non-scaling-stroke;fill:#2962FF;fill-opacity:1;stroke:#2962FF;stroke-width:4px;stroke-linecap:round;stroke-linejoin:round" />
      <circle
        cx="201.04791"
        cy="344.13113"
        r="8"
        class="uniform-line"
        id="circle5-9"
        style="vector-effect:non-scaling-stroke;fill:#2962FF;fill-opacity:1;stroke:#2962FF;stroke-width:4px;stroke-linecap:round;stroke-linejoin:round" />
      <path
        style="fill:#2962FF;fill-opacity:1;stroke-width:0.504414"
        d="M 140.6053,311.33556 81.210593,274.21364 v -74.2143 -74.2143 L 140.35309,88.823421 c 32.52837,-20.328889 59.31209,-36.997483 59.51937,-37.041321 0.20729,-0.04384 27.0484,16.58889 59.64691,36.961617 l 59.27004,37.041323 v 74.21546 74.21547 l -58.83684,36.78861 c -32.36026,20.23374 -59.08788,36.93807 -59.3947,37.12075 -0.30683,0.18268 -27.28549,-16.37271 -59.95257,-36.78977 z m 115.51072,-5.54238 55.10718,-35.03716 V 200 129.24398 L 255.91312,94.046119 C 225.49259,74.687294 200.33168,58.848256 200,58.848256 c -0.33168,0 -25.49259,15.839038 -55.91312,35.197863 L 88.776797,129.24398 v 70.75678 70.75678 l 55.555493,35.35175 c 30.55552,19.44346 55.80773,35.20984 56.11602,35.0364 0.30829,-0.17344 25.35875,-16.08207 55.66771,-35.35251 z"
        id="path71" />
      <path
        style="fill:#2962FF;fill-opacity:1;stroke-width:0.0630517"
        d="m 80.138714,175.47289 v -40.98361 h 0.535939 0.53594 v 40.98361 40.9836 h -0.53594 -0.535939 z"
        id="path72" />
      <path
        style="fill:#2962FF;fill-opacity:1;stroke-width:0.0630517"
        d="m 88.776797,175.47289 v -40.98361 h 0.53594 0.535939 v 40.98361 40.9836 h -0.535939 -0.53594 z"
        id="path73" />
      <path
        style="fill:#2962FF;fill-opacity:1;stroke-width:0.0630517"
        d="m 89.88001,175.47289 c 0,-22.55832 0.0072,-31.78673 0.01595,-20.50757 0.0088,11.27916 0.0088,29.73597 0,41.01513 -0.0088,11.27917 -0.01595,2.05076 -0.01595,-20.50756 z"
        id="path74" />
      <path
        style="fill:#2962FF;fill-opacity:1;stroke-width:0.0630517"
        d="m 89.911728,175.47289 c 0,-36.38784 0.0106,-40.98361 0.09458,-40.98361 0.08397,0 0.09458,4.59577 0.09458,40.98361 0,36.38784 -0.01061,40.9836 -0.09458,40.9836 -0.08397,0 -0.09458,-4.59576 -0.09458,-40.9836 z"
        id="path75" />
      <path
        style="fill:#2962FF;fill-opacity:1;stroke-width:0.504414"
        d="M 139.34426,312.96429 79.192938,275.34562 v -75.3453 -75.3453 L 139.09206,87.18942 C 172.03657,66.583339 199.44515,49.723818 200,49.723818 c 0.55485,0 27.96343,16.859521 60.90794,37.465602 l 59.89912,37.4656 V 200 275.34498 l -59.89912,37.43888 c -32.94451,20.59139 -60.23959,37.51994 -60.65573,37.61899 -0.41614,0.0991 -27.82472,-16.7483 -60.90795,-37.43856 z m 120.58865,-1.23667 59.34022,-37.0744 V 200 125.34678 L 259.91099,88.272383 C 227.26181,67.881463 200.30186,51.197982 200,51.197982 c -0.30186,0 -27.26181,16.683481 -59.91099,37.074401 l -59.362141,37.074397 0.08498,4.79193 0.08497,4.79193 0.282991,-4.50546 0.28299,-4.50546 47.16267,-29.44179 c 53.11904,-33.160108 70.63793,-44.036138 71.15692,-44.175445 0.39454,-0.105903 28.55564,17.300147 82.94144,51.265145 l 35.81337,22.36615 v 74.06029 74.06028 l -58.76419,36.73656 c -32.3203,20.20511 -59.0014,36.7396 -59.29133,36.74331 -0.98116,0.0126 -25.1445,-14.8405 -87.45263,-53.7567 l -31.56625,-19.71554 -0.258411,-28.96037 -0.258411,-28.96037 -0.109205,29.25599 -0.109206,29.25599 59.384013,37.16068 c 32.6612,20.43838 59.63086,37.12186 59.93256,37.0744 0.3017,-0.0475 27.25165,-16.76976 59.88877,-37.16068 z m -12.01362,-0.41153 c 25.52333,-16.2147 50.20582,-31.89158 54.84999,-34.83752 l 8.44393,-5.35625 0.005,-71.12232 0.005,-71.12232 -15.00595,-9.5556 C 265.78078,99.940968 226.85912,75.268342 213.67807,67.000547 l -13.56027,-8.505658 -2.32876,1.358218 c -3.12093,1.820238 -40.6964,25.568078 -78.36912,49.529573 l -30.643123,19.49037 0.08222,3.0288 0.08222,3.02879 0.296093,-2.74381 0.296092,-2.7438 52.963428,-33.716968 C 171.62673,77.18173 196.48667,61.369704 197.74114,60.588228 l 2.28087,-1.420865 55.22228,35.141993 55.22229,35.141994 v 70.54891 70.54891 l -54.98108,34.98492 c -30.2396,19.24171 -55.06728,35.23455 -55.17263,35.53965 -0.24145,0.69923 -6.08129,4.34957 47.60642,-29.75765 z m -48.26666,29.40421 c -0.14483,-0.14482 -24.98089,-15.9925 -55.19126,-35.21707 l -54.927953,-34.95376 -0.258789,-27.20411 -0.258789,-27.20412 -0.119521,27.49285 -0.119521,27.49286 30.895333,19.65316 c 34.65013,22.04167 60.99097,38.66469 72.21463,45.57278 6.75101,4.1552 8.58514,5.18669 7.76587,4.36741 z m 55.0933,-36.40846 54.45962,-34.65411 V 200.00056 130.34341 L 255.6116,96.257408 c -29.47667,-18.747301 -54.06523,-34.371881 -54.64124,-34.72129 -0.95165,-0.577265 -6.0309,2.535908 -55.61161,34.085434 L 90.794451,130.34227 v 69.65767 69.65766 l 54.350569,34.62537 c 29.89281,19.04396 54.52848,34.63834 54.74593,34.65418 0.21744,0.0158 24.90218,-15.56555 54.85498,-34.62531 z"
        id="path76" />
      <path
        style="fill:#2962FF;fill-opacity:1;stroke-width:0.0891686"
        d="m 80.846569,129.65985 c -0.05783,-3.44429 -0.0493,-4.24669 0.04606,-4.33442 0.205783,-0.18931 75.459881,-47.153291 92.783571,-57.903628 7.86812,-4.882616 8.24031,-5.102218 8.60266,-5.075897 0.36954,0.02684 0.15438,0.167258 -8.84809,5.774224 -5.07476,3.160692 -27.90543,17.418164 -50.73481,31.683271 l -41.507972,25.93656 -0.06625,3.18164 c -0.110987,5.33019 -0.19432,5.55376 -0.275169,0.73825 z"
        id="path77" />
      <path
        style="fill:#2962FF;fill-opacity:1;stroke-width:0.0891686"
        d=""
        id="path78" />
      <path
        style="fill:#2962FF;fill-opacity:1;stroke-width:0.0891686"
        d="m 88.969842,133.52994 c -0.03029,-0.0981 -0.06818,-1.10024 -0.08421,-2.22701 l -0.02915,-2.04866 31.532258,-20.06514 c 38.79207,-24.684822 46.17523,-29.37146 59.91011,-38.029356 12.26247,-7.729745 14.07266,-8.844664 14.31175,-8.814777 0.1806,0.02258 -0.36446,0.403833 -2.65065,1.854071 -1.5829,1.004108 -21.9779,13.981091 -45.32223,28.83774 -23.34433,14.856652 -45.69444,29.078302 -49.666898,31.603682 -3.97246,2.52538 -7.281846,4.64618 -7.354191,4.7129 -0.09424,0.0869 -0.196779,0.72153 -0.361629,2.2381 -0.126551,1.16423 -0.254873,2.03653 -0.28516,1.93845 z"
        id="path79" />
      <path
        style="fill:#2962FF;fill-opacity:1;stroke-width:0.0891686"
        d="m 79.293007,151.44339 0.02244,-26.80459 15.604501,-9.76119 C 149.14403,80.958445 163.73483,71.858172 177.36579,63.456216 l 1.83745,-1.132583 1.21182,0.02489 1.21181,0.02489 -8.6223,5.349143 c -11.90797,7.387517 -23.96137,14.902649 -60.6828,37.834904 l -31.640891,19.7595 0.05477,3.70523 c 0.05306,3.58927 0.122401,5.58075 0.191896,5.51126 0.09852,-0.0985 0.304434,-4.43461 0.304706,-6.41661 l 3.16e-4,-2.2922 36.848913,-23.02323 C 155.63946,79.335161 163.08207,74.688335 175.7465,66.798018 l 7.17329,-4.469186 5.6224,0.0018 5.62238,0.0018 -0.60546,0.377175 C 182.5112,69.592064 165.28905,80.50226 122.63523,107.63975 l -33.9002,21.5682 0.0409,1.49224 c 0.0709,2.5867 0.142081,3.87425 0.209898,3.79659 0.08183,-0.0937 0.577238,-4.74839 0.512298,-4.81333 -0.02604,-0.026 -0.07402,0.1667 -0.106626,0.4283 -0.03261,0.26161 -0.128809,1.03741 -0.213779,1.724 l -0.154491,1.24836 -0.0677,-1.1146 c -0.03723,-0.61304 -0.05469,-1.47308 -0.03879,-1.91122 l 0.0289,-0.79661 13.01861,-8.28529 c 72.43832,-46.101142 92.21831,-58.614673 92.38618,-58.446807 0.0568,0.05675 4.21817,-2.598593 -51.81448,33.062139 -58.559285,37.268758 -53.006815,33.725948 -53.009006,33.822998 -9.39e-4,0.0416 0.128701,-0.002 0.28809,-0.0973 0.159389,-0.0951 18.807886,-11.96253 41.441096,-26.37199 22.63321,-14.409468 46.25619,-29.442984 52.49551,-33.407816 l 11.3442,-7.208785 h 1.6661 1.66609 l -1.71315,0.980291 c -5.86673,3.357036 -13.44226,8.132189 -71.18783,44.87246 l -34.753454,22.11167 v 23.97736 23.97737 h -5.751519 -5.75152 z"
        id="path80" />
      <path
        style="fill:#2962FF;fill-opacity:1;stroke-width:0.126103"
        d="M 291.74023,108.78827 C 244.05821,78.974639 209.82456,57.67526 201.61292,52.713171 l -1.72883,-1.044685 -3.37836,2.085354 c -1.8581,1.146945 -5.75075,3.56015 -8.65032,5.362677 -3.71121,2.307085 -5.34614,3.257925 -5.52253,3.211796 -0.32461,-0.08489 -0.81272,0.232585 7.45274,-4.847332 8.63783,-5.308766 10.04403,-6.156895 10.20821,-6.156895 0.43645,0 27.35216,16.689366 86.32174,53.524684 11.51203,7.19098 20.95072,13.09428 20.97488,13.11844 0.0242,0.0242 0.0251,0.15088 0.002,0.2816 -0.0342,0.19475 -2.84376,-1.51432 -15.55243,-9.46054 z"
        id="path81" />
      <path
        style="fill:#2962FF;fill-opacity:1;stroke-width:0.126103"
        d="m 194.65873,62.32441 c -0.0908,-0.146881 4.88438,-3.206023 5.31817,-3.270051 0.33515,-0.04947 0.33477,-0.04827 -0.04,0.126605 -0.30687,0.143209 -3.45388,2.101903 -4.87483,3.034086 -0.18431,0.120912 -0.36583,0.170124 -0.40339,0.10936 z"
        id="path82" />
      <path
        style="fill:#2962FF;fill-opacity:1;stroke-width:0.126103"
        d=""
        id="path83" />
      <path
        style="fill:#2962FF;fill-opacity:1;stroke-width:0.126103"
        d="M 253.75092,93.275354 C 224.32591,74.549238 200.27712,59.20165 200.30917,59.169602 c 0.0972,-0.0972 6.78374,4.059865 23.14606,14.39006 19.22197,12.135603 83.43853,52.971788 83.71326,53.234398 1.34439,1.28509 -3.90246,-2.00723 -53.41757,-33.518706 z"
        id="path84" />
      <path
        style="fill:#2962FF;fill-opacity:1;stroke-width:0.356674"
        d="M 191.17152,345.09754 C 102.05022,289.48486 80.329453,275.89803 79.805043,275.4353 c -0.592378,-0.52269 -0.620311,-4.47273 -0.535011,-75.65746 l 0.09,-75.10598 49.419778,-30.859424 c 74.65643,-46.61806 70.95395,-44.352348 71.81803,-43.948609 0.73067,0.341407 31.38241,19.425534 90.35177,56.254043 l 29.68568,18.53979 0.007,75.30029 0.007,75.30028 -31.83318,19.9084 c -42.90228,26.831 -87.31169,54.52363 -88.19362,54.99541 -0.61794,0.33056 -1.94928,-0.3828 -9.45187,-5.0645 z m 16.23458,-0.48159 c 3.3349,-2.05771 29.93835,-18.65174 59.11876,-36.87561 l 53.0553,-33.13431 v -74.47306 c 0,-70.47969 -0.0335,-74.50251 -0.62418,-75.02234 -0.34329,-0.30211 -8.08759,-5.19731 -17.20953,-10.87823 C 292.6245,108.55148 269.35151,94.037155 250.02868,81.978342 230.70585,69.919531 211.56008,57.995366 207.48251,55.480199 l -7.41374,-4.573031 -3.99983,2.425482 c -3.86739,2.34517 -43.5997,27.107901 -92.00922,57.34374 l -23.45133,14.64735 v 4.63068 c 0,2.54687 0.120377,4.51062 0.267505,4.36389 0.147129,-0.14674 0.347758,-2.12858 0.445843,-4.40408 l 0.178337,-4.13728 50.325255,-31.411972 c 41.288,-25.771099 63.28489,-39.456236 67.58068,-42.044599 0.66766,-0.402294 7.0987,3.546405 81.65333,50.135711 l 37.27246,23.29162 0.09,74.2011 0.09,74.2011 -58.72819,36.71459 c -32.3005,20.19303 -58.92011,36.7618 -59.15468,36.8195 -0.7602,0.18699 -22.04082,-12.87406 -84.61448,-51.93238 l -34.680416,-21.64743 -0.0374,-27.10724 c -0.02057,-14.90899 -0.162401,-27.90977 -0.315175,-28.89062 -0.152775,-0.98086 -0.292404,11.37791 -0.310287,27.46392 l -0.03252,29.24729 35.717548,22.29214 c 89.26442,55.71199 83.35959,52.09514 84.27307,51.61923 0.39234,-0.20441 3.44191,-2.05524 6.77681,-4.11296 z m 44.04927,-35.6246 c 27.75818,-17.6405 52.59617,-33.42894 55.19554,-35.08543 l 4.72611,-3.0118 -0.0894,-70.95422 -0.0893,-70.95421 -25.68055,-16.34698 C 221.65983,71.989883 200.7719,58.851258 200.00589,58.851258 c -0.55262,0 -17.61936,10.692017 -56.44449,35.361502 -13.73196,8.72529 -31.66079,20.10785 -39.84184,25.29458 l -14.874651,9.43042 0.02257,2.85339 c 0.02135,2.69885 0.04056,2.76646 0.354604,1.24836 0.182616,-0.88277 0.259714,-2.09992 0.171329,-2.70478 -0.100536,-0.68801 -0.0058,-1.10086 0.253071,-1.10273 0.227574,-0.002 24.328787,-15.21158 53.558247,-33.799856 29.22946,-18.588278 53.88079,-34.262768 54.78073,-34.832203 0.89994,-0.569434 1.80961,-1.035334 2.02149,-1.035334 0.34047,0 109.08799,69.054203 110.21051,69.983203 0.35392,0.2929 0.44585,14.83948 0.44585,70.54866 v 70.17968 l -39.68002,25.25386 c -40.6079,25.8444 -61.84675,39.42938 -67.58817,43.23133 l -3.24079,2.14604 -1.72423,-1.15483 c -0.94832,-0.63516 -25.63924,-16.36878 -54.8687,-34.96361 -29.22946,-18.59483 -53.342391,-33.99166 -53.584294,-34.21519 -0.335346,-0.30987 -0.461571,-4.76816 -0.531381,-18.76842 -0.05036,-10.0991 -0.177833,-22.21409 -0.283279,-26.92219 -0.10893,-4.86367 -0.226013,3.24989 -0.271135,18.78899 l -0.07942,27.34918 28.266439,17.98807 c 63.34369,40.31039 82.82139,52.48188 83.53633,52.20131 0.20421,-0.0801 23.08253,-14.57884 50.8407,-32.21934 z m -33.70572,18.9452 c 17.52591,-11.08464 27.56856,-17.46096 64.84309,-41.17042 l 26.6352,-16.94203 -0.0848,-69.87149 -0.0848,-69.8715 -54.03175,-34.366565 C 225.30905,76.812933 200.73784,61.347978 200.42383,61.347978 c -1.28602,0 -11.88018,6.647878 -99.21794,62.259662 l -10.6115,6.75681 0.08961,69.72089 0.08961,69.72089 37.4508,23.83844 c 20.59794,13.11114 45.14632,28.71775 54.55196,34.68135 l 17.10117,10.84293 1.26756,-0.76609 c 0.69716,-0.42134 8.16921,-5.13119 16.60455,-10.46631 z"
        id="path85" />
      <path
        style="fill:#2962FF;fill-opacity:1;stroke-width:0.356674"
        d="m 186.71056,342.33826 c -7.25369,-4.51619 -34.41547,-21.46863 -60.35952,-37.67209 l -47.171001,-29.46085 0.09,-75.27383 0.09,-75.27383 37.807471,-23.63027 c 76.4138,-47.759854 82.59707,-51.55245 83.42415,-51.1694 0.82273,0.381034 26.96859,16.65222 83.40975,51.90785 l 36.64779,22.89182 5e-4,75.33073 5e-4,75.33074 -50.20191,31.35226 c -56.11525,35.04528 -68.77614,42.93123 -69.82742,43.49266 -0.62356,0.333 -2.51654,-0.73197 -13.9103,-7.82579 z m 17.97026,3.92535 c 6.87941,-4.24805 52.48515,-32.68614 84.68187,-52.80457 l 30.23883,-18.89501 -0.074,-71.56478 c -0.0407,-39.36062 -0.16588,-72.99535 -0.27818,-74.74384 l -0.20416,-3.17906 -33.17071,-20.72007 c -39.08375,-24.413644 -77.81077,-48.52 -82.5329,-51.374145 l -3.35122,-2.025536 -3.9606,2.414407 c -4.54551,2.770965 -29.7928,18.510407 -80.19974,49.997414 L 80.60839,125.3698 v 4.42931 c 0,2.43612 0.114283,4.31503 0.253963,4.17535 0.13968,-0.13968 0.34031,-2.04964 0.445843,-4.24436 l 0.191879,-3.9904 48.007195,-29.96665 c 38.85715,-24.255082 65.65503,-40.914804 69.88925,-43.448788 0.69661,-0.416886 1.8675,0.3013 84.05684,51.557608 l 35.02971,21.84582 0.0135,74.23596 0.0135,74.23596 -58.86263,36.77891 c -32.37444,20.2284 -59.00104,36.77891 -59.1702,36.77891 -0.87031,0 -25.9752,-15.48072 -95.16187,-58.68079 l -23.978988,-14.97245 -0.04956,-26.3939 c -0.02726,-14.51664 -0.172584,-26.8754 -0.322952,-27.46392 -0.150367,-0.58851 -0.251755,11.44656 -0.225305,26.74459 l 0.04809,27.81461 42.087565,26.3169 c 64.12708,40.09796 76.42811,47.70499 77.14198,47.70499 0.28191,0 2.38096,-1.15373 4.66455,-2.56385 z m 33.3314,-28.75715 c 20.63527,-13.10696 45.5842,-28.95667 55.44207,-35.22159 l 17.9234,-11.39075 -0.0897,-70.95368 -0.0897,-70.95369 -25.14554,-15.99711 C 221.28689,71.78682 200.74441,58.851258 200.07764,58.851258 c -0.2388,0 -1.01488,0.350891 -1.72464,0.779758 -2.3187,1.401076 -27.24081,17.134974 -47.15461,29.769794 -7.37374,4.678454 -24.41879,15.48818 -37.8779,24.02161 l -24.471094,15.51534 0.02227,2.67505 c 0.01958,2.3519 0.05784,2.50271 0.316729,1.24836 0.161953,-0.78468 0.201531,-1.97153 0.08795,-2.63745 -0.146591,-0.85946 -0.08797,-1.13749 0.202054,-0.95824 0.224805,0.13893 0.504446,0.003 0.621753,-0.30307 0.117255,-0.30556 0.35801,-0.46607 0.535011,-0.35667 0.177001,0.10939 0.417756,-0.0511 0.535012,-0.35668 0.117255,-0.30556 0.356876,-0.46676 0.532492,-0.35823 0.175615,0.10854 0.3193,0.0179 0.3193,-0.20143 0,-0.21933 0.161637,-0.29888 0.359193,-0.17678 0.197557,0.12209 0.45513,-0.028 0.572386,-0.33358 0.117256,-0.30556 0.358011,-0.46607 0.535011,-0.35667 0.177001,0.10939 0.407845,-0.0253 0.512987,-0.29928 0.105141,-0.27399 0.389835,-0.49818 0.632652,-0.49818 0.546043,0 2.381211,-1.17696 2.381211,-1.52716 0,-0.14091 0.203773,-0.25621 0.45283,-0.25621 0.545993,0 3.470583,-1.8934 3.470583,-2.24688 0,-0.13741 0.20063,-0.25059 0.44585,-0.2515 0.56039,-0.002 7.40099,-4.37337 7.40099,-4.72937 0,-0.14433 0.20377,-0.26241 0.45283,-0.26241 0.54599,0 3.47059,-1.8934 3.47059,-2.24688 0,-0.13741 0.20377,-0.24984 0.45283,-0.24984 0.54599,0 3.47058,-1.8934 3.47058,-2.24688 0,-0.13741 0.20378,-0.24984 0.45283,-0.24984 0.546,0 3.47059,-1.8934 3.47059,-2.24688 0,-0.13741 0.20558,-0.24984 0.45684,-0.24984 0.62184,0 2.39655,-1.19051 2.39655,-1.60766 0,-0.18518 0.16164,-0.2368 0.3592,-0.1147 0.19756,0.12209 0.44522,-0.002 0.55036,-0.27618 0.10514,-0.274 0.38803,-0.49818 0.62865,-0.49818 0.53487,0 3.45523,-1.89906 3.45523,-2.24688 0,-0.13741 0.20063,-0.25104 0.44585,-0.25251 0.56615,-0.003 11.32441,-6.863774 11.32441,-7.221401 0,-0.146347 0.20063,-0.268183 0.44584,-0.270748 0.64314,-0.0067 14.1778,-8.684355 14.1778,-9.089976 0,-0.186937 0.16164,-0.239985 0.35919,-0.117888 0.19756,0.122093 0.44522,-0.0022 0.55037,-0.27618 0.10514,-0.273994 0.38983,-0.498174 0.63265,-0.498174 0.54604,0 2.38121,-1.176965 2.38121,-1.527162 0,-0.140915 0.20063,-0.259912 0.44584,-0.264442 0.49008,-0.009 14.49493,-8.843494 15.07078,-9.506845 0.19688,-0.226796 0.52051,-0.439982 0.71919,-0.473747 0.19866,-0.03376 5.81016,-3.524714 12.46997,-7.757665 6.65982,-4.232952 12.30804,-7.696275 12.55159,-7.696275 0.43128,0 108.81959,68.779903 110.0617,69.841783 0.59053,0.50485 0.62418,4.31675 0.62418,70.71708 v 70.18346 l -41.9984,26.73569 c -45.35404,28.87185 -55.22728,35.1831 -63.24825,40.43004 l -5.19952,3.40127 -51.87363,-33.0282 C 119.813,289.68023 94.907324,273.81519 92.997555,272.59009 l -3.472308,-2.22745 -0.0013,-13.82289 c -0.0013,-13.72699 -0.335793,-32.59053 -0.583032,-32.87525 -0.07098,-0.0817 -0.129054,10.5339 -0.129054,23.5903 v 23.73891 l 20.062929,12.76958 c 57.71004,36.73109 90.82354,57.57401 91.46882,57.57401 0.0824,0 17.0333,-10.72388 37.66857,-23.83084 z m -11.16737,4.63933 c 13.4377,-8.51583 37.47095,-23.77196 53.40722,-33.90251 l 28.97503,-18.41918 0.005,-69.78772 0.005,-69.78772 -20.95461,-13.35021 c -20.14708,-12.83572 -66.35741,-42.203175 -80.58824,-51.215189 -3.7652,-2.384406 -7.05022,-4.335283 -7.30004,-4.335283 -1.12099,0 -10.43196,5.8157 -71.37973,44.584282 l -38.40964,24.43219 0.08463,69.70921 0.08463,69.70921 38.87749,24.74264 c 21.38263,13.60845 45.93503,29.21783 54.5609,34.68751 l 15.6834,9.94489 1.25863,-0.76439 c 0.69225,-0.42042 12.25312,-7.73189 25.69082,-16.24773 z"
        id="path86" />
      <path
        style="fill:#2962FF;fill-opacity:1;stroke-width:0.0891686"
        d="m 155.36745,322.8949 c -4.55614,-2.83595 -14.06201,-8.76847 -21.12416,-13.18337 -46.759709,-29.2318 -54.851534,-34.30156 -54.959751,-34.43387 -0.100587,-0.12298 -0.112067,-1.21937 -0.06784,-6.479 0.02928,-3.48203 0.05367,-17.65649 0.0542,-31.4988 l 9.61e-4,-25.16783 h 5.751373 5.751373 v 28.78696 28.78695 l 20.976904,13.36473 c 26.78137,17.06283 52.87359,33.66814 62.83562,39.98911 l 7.79632,4.94681 -1.21067,0.0247 -1.21066,0.0247 -10.3664,-6.60741 c -5.70152,-3.63407 -25.97938,-16.53961 -45.06189,-28.67897 -19.08252,-12.13935 -34.765714,-22.15228 -34.851539,-22.25096 -0.141559,-0.16274 -0.156019,-0.44128 -0.155767,-3.00062 5.14e-4,-5.21538 -0.351058,-40.2544 -0.420631,-41.92164 l -0.06884,-1.64962 -0.05516,2.5413 c -0.03033,1.39772 -0.08534,11.95082 -0.122241,23.45134 l -0.06709,20.91003 31.508968,20.03784 c 35.62069,22.65266 53.8243,34.18641 58.02993,36.76759 l 0.5729,0.35162 -5.67382,0.023 -5.67382,0.023 -0.69505,-0.43694 c -0.38227,-0.24031 -4.58725,-2.85395 -9.3444,-5.80811 -4.75714,-2.95415 -23.86708,-14.88039 -42.46653,-26.50275 l -33.817183,-21.13156 0.0017,-15.26001 c 0.0019,-16.67857 -0.156398,-38.48327 -0.280314,-38.61771 -0.04481,-0.0486 -0.0779,1.01523 -0.07766,2.49672 2.27e-4,1.41978 -0.04357,13.41541 -0.09733,26.65694 -0.05376,13.24154 -0.07039,24.3564 -0.03696,24.6997 l 0.06078,0.62418 3.447247,2.15046 c 1.895987,1.18276 10.068015,6.29411 18.16007,11.35857 24.66086,15.43412 53.86348,33.6908 58.76209,36.73642 2.55022,1.58556 4.67488,2.91657 4.72147,2.95781 0.0466,0.0412 -0.43887,0.075 -1.07881,0.075 h -1.16352 z"
        id="path87" />
      <path
        style="fill:#2962FF;fill-opacity:1;stroke-width:0.0891686"
        d="m 165.1402,327.38771 c -0.56399,-0.35693 -11.87949,-7.43241 -25.14554,-15.72329 -13.26606,-8.29087 -32.00483,-20.00938 -41.641724,-26.04114 l -17.521625,-10.96683 0.02269,-16.88377 c 0.01248,-9.28608 0.05261,-19.75278 0.08917,-23.25933 l 0.06647,-6.37556 0.05425,5.66221 c 0.02984,3.11421 0.06079,13.48674 0.06878,23.05007 l 0.01453,17.38788 25.115759,15.69366 c 41.20425,25.74661 44.51051,27.81061 52.36792,32.69179 4.14411,2.57439 7.78553,4.83445 8.09205,5.02234 0.30652,0.18789 0.5573,0.35598 0.5573,0.37353 0,0.0175 -0.25078,0.0286 -0.5573,0.0247 -0.53368,-0.007 -0.60078,-0.0348 -1.58274,-0.65622 z"
        id="path88" />
      <path
        style="fill:#2962FF;fill-opacity:1;stroke-width:0.0891686"
        d="m 159.11255,325.23019 c -5.54641,-3.44723 -17.21938,-10.73489 -34.18738,-21.34382 -7.03763,-4.40014 -20.15878,-12.60381 -29.158123,-18.23037 -8.999338,-5.62656 -16.416941,-10.29677 -16.483561,-10.37824 -0.10114,-0.12368 -0.112317,-1.74466 -0.06773,-9.82292 0.02937,-5.32113 0.05378,-19.49559 0.05425,-31.4988 l 8.55e-4,-21.82401 h 5.751373 5.751373 v 28.79381 28.7938 l 0.461209,0.28378 c 0.253666,0.15608 11.960384,7.61002 26.014934,16.5643 26.38575,16.8106 48.399,30.81817 59.03472,37.56521 l 6.10625,3.87366 -1.21876,0.0248 -1.21877,0.0248 -5.64541,-3.60001 c -12.15614,-7.75179 -24.31498,-15.49373 -53.87524,-34.30414 -18.66433,-11.87688 -30.780028,-19.6395 -30.822106,-19.74794 -0.03813,-0.0983 -0.113603,-5.71606 -0.167712,-12.48395 -0.162771,-20.35893 -0.283727,-31.41117 -0.357165,-32.6357 -0.06575,-1.09639 -0.07059,-1.03842 -0.08924,1.07002 -0.01085,1.22607 -0.03393,2.30462 -0.05129,2.39678 -0.01736,0.0922 -0.05871,9.60199 -0.0919,21.13295 l -0.06034,20.96539 10.241647,6.50602 c 5.632896,3.57832 20.152726,12.80982 32.266276,20.51445 24.10987,15.3347 30.57507,19.43414 40.64947,25.77497 3.68447,2.319 6.75923,4.25673 6.8328,4.30605 0.0904,0.0606 -1.70804,0.0914 -5.54779,0.0949 l -5.68155,0.005 -0.69401,-0.43612 c -0.3817,-0.23986 -3.52288,-2.19169 -6.98039,-4.3374 -9.08354,-5.63718 -10.6178,-6.59458 -46.2562,-28.86479 l -32.390476,-20.2406 0.0014,-15.21499 c 0.0015,-16.19109 -0.148026,-38.0729 -0.262724,-38.4434 -0.09749,-0.31491 -0.306243,51.92418 -0.213442,53.41198 l 0.05284,0.8471 22.167982,13.86571 c 38.88116,24.31953 49.1177,30.71831 56.0535,35.03857 3.72725,2.32168 6.81493,4.25559 6.86152,4.29758 0.0475,0.0428 -0.42681,0.0764 -1.07879,0.0764 h -1.16351 z"
        id="path89" />
      <path
        style="fill:#2962FF;fill-opacity:1;stroke-width:0.0891686"
        d="m 178.42631,327.60765 c -0.36782,-0.23647 -3.75845,-2.37403 -7.53474,-4.75013 -12.15215,-7.64635 -20.55122,-12.97801 -57.45087,-36.46939 l -24.547672,-15.62776 0.0033,-10.2098 c 0.0034,-10.7618 0.119038,-33.23447 0.166265,-32.32361 0.01526,0.29426 0.117252,9.93417 0.226657,21.42203 0.123112,12.9272 0.231475,20.91782 0.28435,20.96785 0.04699,0.0445 16.25615,10.37044 36.02036,22.94662 47.06956,29.95086 53.93047,34.3204 54.0317,34.4115 0.0486,0.0437 -0.0465,0.0733 -0.22292,0.0694 -0.20784,-0.005 -0.52457,-0.14626 -0.9764,-0.43673 z"
        id="path90" />
      <path
        style="fill:#2962FF;fill-opacity:1;stroke-width:0.356674"
        d="m 198.30509,349.56256 c -0.87957,-0.5612 -8.90212,-5.55489 -17.8279,-11.09708 -8.92577,-5.54219 -35.36908,-22.03188 -58.76292,-36.64376 l -42.534233,-26.56705 0.09,-75.2985 0.09,-75.29851 36.380783,-22.75386 c 73.35851,-45.881075 84.02957,-52.426157 84.85388,-52.045037 0.92034,0.425517 19.53025,12.001075 76.27455,47.443549 l 43.7826,27.346598 -0.09,75.40467 -0.09,75.40467 -50.32741,31.42366 c -54.65327,34.12465 -67.06372,41.85528 -68.98595,42.97225 l -1.25418,0.72877 z m 6.87339,-3.62534 c 2.59839,-1.58962 29.40862,-18.30294 59.57829,-37.1407 l 54.85395,-34.25048 -0.10076,-61.92557 c -0.0554,-34.05907 -0.18267,-67.68425 -0.28278,-74.72261 l -0.18203,-12.79703 -16.22868,-10.14696 C 264.90631,91.250584 212.77422,58.766356 205.50441,54.317379 l -5.46843,-3.346573 -1.63621,0.958878 c -0.89991,0.527384 -15.53273,9.626656 -32.51737,20.220606 -16.98465,10.593949 -33.56961,20.932544 -36.85548,22.974654 -3.28586,2.04211 -5.97429,3.837883 -5.97429,3.990608 0,0.152728 -0.20063,0.278359 -0.44584,0.279179 -0.24522,8.24e-4 -9.79517,5.845779 -21.22212,12.988789 l -20.77628,12.98729 v 4.25047 c 0,2.33776 0.112624,4.13785 0.250276,4.00019 0.137653,-0.13765 0.338282,-1.96871 0.445843,-4.06903 l 0.195566,-3.81875 49.434355,-30.855329 c 52.95814,-33.054763 68.67015,-42.803915 68.98403,-42.803915 0.10881,0 2.31955,1.308384 4.91276,2.90752 11.87646,7.323775 48.31324,29.990844 74.44475,46.311564 15.79175,9.86291 31.0769,19.39543 33.96698,21.18336 l 5.25471,3.2508 0.006,74.23337 0.006,74.23336 -58.85157,36.78151 c -32.36837,20.22983 -59.00988,36.7815 -59.20336,36.7815 -0.34243,0 -10.95868,-6.38031 -29.07321,-17.47286 -4.90427,-3.00316 -25.28821,-15.67707 -45.29764,-28.16425 -20.00943,-12.48718 -38.266691,-23.87685 -40.571699,-25.31037 l -4.190923,-2.60641 -0.0674,-21.62847 c -0.03707,-11.89566 -0.15929,-20.18394 -0.271599,-18.4184 -0.11231,1.76554 -0.202357,11.62097 -0.200105,21.90096 l 0.0041,18.69089 30.672526,19.1726 c 16.86988,10.54493 30.79356,19.0978 30.94149,19.00637 0.14794,-0.0914 0.26898,-0.0147 0.26898,0.17047 0,0.41714 1.77471,1.60765 2.39656,1.60765 0.25125,0 0.45683,0.1153 0.45683,0.25621 0,0.35537 1.83888,1.52717 2.39656,1.52717 0.25126,0 0.45683,0.11529 0.45683,0.25621 0,0.35536 1.83889,1.52716 2.39656,1.52716 0.25126,0 0.45684,0.11529 0.45684,0.25621 0,0.35537 1.83888,1.52716 2.39656,1.52716 0.25126,0 0.45683,0.11529 0.45683,0.25621 0,0.35537 1.83888,1.52716 2.39656,1.52716 0.25126,0 0.45684,0.1153 0.45684,0.25621 0,0.35537 1.83888,1.52716 2.39656,1.52716 0.25126,0 0.45683,0.1153 0.45683,0.25621 0,0.35537 1.83888,1.52716 2.39656,1.52716 0.25126,0 0.45684,0.1153 0.45684,0.25621 0,0.43499 1.92566,1.5472 2.59359,1.498 0.34754,-0.0256 0.54599,0.0924 0.44099,0.26233 -0.10499,0.16989 3.54299,2.63145 8.10663,5.47014 17.87337,11.11763 25.79328,15.9297 26.22201,15.93226 0.24609,0.001 2.57339,-1.29793 5.17178,-2.88756 z m 7.84075,-12.57173 c 6.91749,-4.3845 23.25074,-14.7543 36.2961,-23.04401 13.04536,-8.28971 32.3443,-20.55211 42.88653,-27.24978 l 19.1677,-12.17758 -0.0856,-70.93941 -0.0856,-70.9394 L 278.741,108.36212 C 220.99175,71.61529 200.68209,58.851258 199.96108,58.851258 c -0.40262,0 -3.58031,1.977101 -28.57908,17.781427 -18.61583,11.769002 -75.29712,47.761635 -79.627539,50.563505 l -2.942563,1.9039 v 2.38583 c 0,2.99701 0.329444,2.80484 0.447173,-0.26083 0.06159,-1.6039 0.221053,-2.26069 0.533682,-2.19817 0.245213,0.0491 0.445843,-0.0808 0.445843,-0.28855 0,-0.20775 0.161636,-0.27783 0.359193,-0.15573 0.197556,0.12209 0.45513,-0.028 0.572386,-0.33358 0.117255,-0.30556 0.356876,-0.46676 0.532492,-0.35823 0.175615,0.10854 0.3193,0.0179 0.3193,-0.20143 0,-0.21933 0.161637,-0.29888 0.359193,-0.17678 0.197557,0.12209 0.45513,-0.028 0.572386,-0.33358 0.117256,-0.30556 0.358011,-0.46607 0.535011,-0.35667 0.177001,0.10939 0.407845,-0.0253 0.512987,-0.29928 0.105141,-0.27399 0.389835,-0.49818 0.632652,-0.49818 0.609951,0 2.381211,-1.19585 2.381211,-1.60765 0,-0.18519 0.161637,-0.23681 0.359194,-0.11471 0.197556,0.12209 0.445218,-0.002 0.55036,-0.27618 0.105141,-0.27399 0.389835,-0.49818 0.632653,-0.49818 0.60995,0 2.381206,-1.19585 2.381206,-1.60765 0,-0.18519 0.16164,-0.23681 0.3592,-0.11471 0.19755,0.12209 0.44522,-0.002 0.55036,-0.27618 0.10514,-0.27399 0.38983,-0.49818 0.63265,-0.49818 0.54604,0 2.38121,-1.17696 2.38121,-1.52716 0,-0.14091 0.20377,-0.25621 0.45283,-0.25621 0.61491,0 3.47059,-1.91502 3.47059,-2.32738 0,-0.18168 0.16164,-0.23043 0.35919,-0.10833 0.19756,0.12209 0.44522,-0.002 0.55036,-0.27618 0.10514,-0.27399 0.38984,-0.49818 0.63266,-0.49818 0.60995,0 2.38121,-1.19585 2.38121,-1.60765 0,-0.18519 0.16163,-0.23681 0.35919,-0.11471 0.19756,0.12209 0.44522,-0.002 0.55036,-0.27618 0.10514,-0.27399 0.38983,-0.49818 0.63265,-0.49818 0.60995,0 2.38121,-1.19585 2.38121,-1.60765 0,-0.18519 0.16164,-0.23681 0.3592,-0.11471 0.19755,0.12209 0.44521,-0.002 0.55036,-0.27618 0.10514,-0.27399 0.38983,-0.49818 0.63265,-0.49818 0.54604,0 2.38121,-1.17696 2.38121,-1.52716 0,-0.14091 0.20558,-0.25621 0.45684,-0.25621 0.62184,0 2.39655,-1.19051 2.39655,-1.60766 0,-0.18518 0.16164,-0.2368 0.3592,-0.1147 0.19756,0.12209 0.44522,-0.002 0.55036,-0.27618 0.10514,-0.274 0.38803,-0.49818 0.62865,-0.49818 0.60361,0 3.45523,-1.9208 3.45523,-2.32738 0,-0.18168 0.16164,-0.23043 0.3592,-0.10833 0.19756,0.12209 0.44522,-0.002 0.55036,-0.27618 0.10514,-0.27399 0.38983,-0.49818 0.63265,-0.49818 0.54604,0 2.38121,-1.17696 2.38121,-1.52716 0,-0.14091 0.20378,-0.25621 0.45283,-0.25621 0.546,0 3.47059,-1.893402 3.47059,-2.246884 0,-0.137409 0.20377,-0.249833 0.45283,-0.249833 0.61491,0 3.47059,-1.915023 3.47059,-2.327382 0,-0.181682 0.16163,-0.230429 0.35919,-0.108332 0.19756,0.122093 0.44522,-0.0022 0.55036,-0.27618 0.10514,-0.273994 0.38984,-0.498175 0.63265,-0.498175 0.54605,0 2.38121,-1.176964 2.38121,-1.527161 0,-0.140915 0.20378,-0.25621 0.45283,-0.25621 0.546,0 3.47059,-1.893405 3.47059,-2.246888 0,-0.137408 0.20378,-0.249832 0.45283,-0.249832 0.54599,0 3.47059,-1.893406 3.47059,-2.246888 0,-0.137408 0.20557,-0.249832 0.45683,-0.249832 0.62184,0 2.39656,-1.190515 2.39656,-1.60766 0,-0.185185 0.16164,-0.236803 0.35919,-0.114706 0.19756,0.122093 0.44522,-0.0022 0.55037,-0.27618 0.10514,-0.273994 0.38983,-0.498174 0.63265,-0.498174 0.60995,0 2.38121,-1.195854 2.38121,-1.60766 0,-0.185185 0.16164,-0.236803 0.35919,-0.114706 0.19756,0.122093 0.44522,-0.0022 0.55036,-0.27618 0.10514,-0.273995 0.38804,-0.498173 0.62865,-0.498173 0.53488,0 3.45524,-1.899067 3.45524,-2.246889 0,-0.137407 0.20063,-0.250582 0.44584,-0.251499 0.5604,-0.0021 7.40099,-4.373363 7.40099,-4.72937 0,-0.144321 0.20558,-0.262402 0.45684,-0.262402 0.62184,0 2.39656,-1.190516 2.39656,-1.60766 0,-0.185186 0.16164,-0.236805 0.35919,-0.114709 0.19756,0.122097 0.44522,-0.0022 0.55036,-0.276179 0.10514,-0.273995 0.38489,-0.501955 0.62166,-0.506578 0.23677,-0.0046 4.44308,-2.566058 9.34735,-5.692078 12.14151,-7.739088 14.26272,-9.042053 14.72033,-9.042053 0.21642,0 2.36974,1.259212 4.78517,2.798251 2.41542,1.539038 26.94241,17.129791 54.50442,34.646118 27.56201,17.516324 50.39362,32.091584 50.73692,32.389444 0.5905,0.51236 0.62418,4.32768 0.62418,70.72366 v 70.18207 l -30.40649,19.35465 c -38.87547,24.74544 -63.02271,40.16971 -72.54701,46.34009 l -7.54312,4.88686 -10.46893,-6.67244 c -5.75791,-3.66984 -19.93863,-12.69247 -31.51271,-20.05029 -11.57408,-7.35782 -31.66077,-20.14346 -44.63709,-28.41254 -12.97632,-8.26908 -23.73005,-15.03465 -23.897179,-15.03459 -0.167129,5e-5 -0.296318,-5.65769 -0.287086,-12.57277 0.0092,-6.91508 -0.07491,-16.98672 -0.186983,-22.38141 -0.154831,-7.45291 -0.223107,-4.41107 -0.284291,12.66576 l -0.08052,22.47431 34.329899,21.8303 c 42.6272,27.10653 53.18494,33.78169 65.36056,41.32435 10.92329,6.76685 11.73756,7.26653 11.85493,7.27486 0.0466,0.003 5.74445,-3.58131 12.66194,-7.9658 z m -2.78161,-0.70107 c 5.28459,-3.32825 25.50802,-16.15723 44.94096,-28.50886 19.43295,-12.35162 39.54365,-25.12914 44.69045,-28.39448 l 9.35781,-5.93698 0.005,-69.79647 0.005,-69.79647 -45.3868,-28.8595 C 208.45069,66.145768 202.19325,62.189831 201.04505,61.666676 c -0.81359,-0.370694 -1.28859,-0.18688 -4.76151,1.842597 -5.1749,3.02407 -18.55526,11.462995 -65.85005,41.531307 l -39.832204,25.32387 0.08616,69.67078 0.08616,69.67078 54.553634,34.7224 c 30.00449,19.09732 54.72202,34.62452 54.92784,34.50488 0.20581,-0.11963 4.69796,-2.94062 9.98254,-6.26887 z"
        id="path91" />
      <path
        style="fill:#2962FF;fill-opacity:1;stroke-width:0.178337"
        d="m 197.31429,347.16495 c -5.48045,-3.27855 -27.56927,-16.94692 -29.40987,-18.19857 -1.57412,-1.07045 -0.79361,-1.04638 0.9218,0.0284 14.0902,8.82826 31.19047,19.11931 31.76987,19.11931 0.44104,0 0.44519,0.01 0.11187,0.26183 -0.1904,0.14401 -0.47365,0.26439 -0.62944,0.26751 -0.1558,0.003 -1.3997,-0.66221 -2.76423,-1.4785 z"
        id="path92" />
      <path
        style="fill:#2962FF;fill-opacity:1;stroke-width:0.178337"
        d="m 199.02425,349.91276 c -0.81737,-0.52238 -21.08548,-13.07165 -32.72486,-20.26203 -8.25042,-5.0968 -17.24683,-10.70847 -55.69027,-34.7378 l -31.436425,-19.64955 0.01931,-43.91552 0.01932,-43.91552 h 5.78114 5.781141 l 0.0034,41.1513 0.0034,41.15129 5.926282,3.76281 c 3.259455,2.06954 19.760322,12.56962 36.668592,23.33351 54.15267,34.47384 66.11475,42.00933 66.68695,42.00933 0.43153,0 17.70929,-10.90606 73.81898,-46.59597 l 35.35534,-22.4886 v -41.16184 -41.16183 h 0.71335 0.71335 v 41.4451 41.44509 l -25.01179,15.92014 c -50.78341,32.32393 -63.29943,40.32042 -76.81872,49.07953 -7.89048,5.11221 -8.73255,5.69014 -8.43525,5.78923 0.19653,0.0655 14.67733,-9.08906 64.52228,-40.79013 6.37555,-4.05482 19.29608,-12.26385 28.71228,-18.2423 9.4162,-5.97844 17.23602,-10.97904 17.37739,-11.11244 0.22263,-0.21009 0.25074,-5.81384 0.21006,-41.88838 l -0.047,-41.64584 h 3.75794 3.75794 l -0.004,43.38051 -0.004,43.38051 -59.04478,36.89499 -59.04475,36.89498 -0.62933,-0.3001 C 196.92905,346.23731 170.84331,330.1297 111.99573,293.3657 100.96112,286.47201 89.54531,279.34422 86.627268,277.52615 l -5.30553,-3.30558 -0.02226,-12.2297 c -0.01225,-6.72633 -0.03864,-12.43033 -0.05866,-12.67554 -0.02001,-0.24521 -0.06017,-3.85654 -0.08922,-8.02517 -0.03151,-4.51942 -0.110485,-7.25534 -0.195632,-6.77681 -0.07854,0.44138 -0.148745,9.67784 -0.156015,20.52545 l -0.01322,19.72294 24.120099,15.07757 c 20.8331,13.02286 32.31099,20.16704 33.30446,20.72968 0.14713,0.0833 0.20654,0.0844 0.13203,0.002 -0.0745,-0.0821 -12.99504,-8.19117 -28.71228,-18.02024 l -28.576803,-17.87104 -0.0057,-3.81006 -0.0057,-3.81007 0.05643,3.65591 0.05643,3.65591 34.457473,21.52423 c 18.95161,11.83833 38.2293,23.86606 42.83931,26.72828 4.61002,2.86222 8.42198,5.24511 8.47102,5.2953 0.049,0.0502 -0.15159,0.0476 -0.44584,-0.006 l -0.53502,-0.0971 0.492,0.39273 c 1.07641,0.85924 29.88026,18.67304 32.35917,20.0126 l 1.2855,0.69467 0.91209,-0.508 c 2.11356,-1.17717 19.07067,-11.70281 57.06238,-35.41985 13.29058,-8.29689 32.52627,-20.29966 42.74599,-26.67283 l 18.58132,-11.58758 0.0103,-43.64801 0.0104,-43.64802 h 0.62453 0.62454 l -0.0449,43.98395 -0.0449,43.98394 -32.36819,20.22528 c -66.70218,41.6789 -87.27446,54.46271 -88.00938,54.68989 -0.23155,0.0716 -0.63821,-0.0697 -1.1592,-0.40264 z m 0.89169,-9.02507 c 0,-0.14351 -4.70676,-3.1703 -23.09466,-14.85156 C 175.35,325.10147 155.40745,312.40885 132.5045,297.83031 89.509713,270.46259 89.257465,270.303 89.703584,270.75122 c 0.202425,0.20338 41.227226,26.37429 65.501166,41.78509 1.35245,0.85863 2.41901,1.60112 2.37015,1.64999 -0.0815,0.0815 -12.03308,-7.48642 -53.24767,-33.71743 l -15.247826,-9.70448 -0.09065,-15.49505 -0.09065,-15.49505 -0.04311,15.54663 -0.04311,15.54664 8.337262,5.30448 c 18.286974,11.63488 43.658344,27.76151 53.367394,33.92156 14.19901,9.00877 14.92155,9.46623 19.34958,12.25087 2.15788,1.35702 5.84946,3.68763 8.20351,5.17915 7.2269,4.57893 21.6041,13.457 21.79236,13.457 0.0297,0 0.0539,-0.0418 0.0539,-0.0929 z m -34.95408,-13.70735 c 0,-0.12495 -2.18548,-1.37239 -2.26502,-1.29285 -0.043,0.043 0.42898,0.36561 1.04884,0.71692 1.18035,0.66898 1.21618,0.68595 1.21618,0.57593 z m -3.87203,-2.43214 c -1.44355,-0.92467 -1.70905,-0.92155 -0.31889,0.004 0.58851,0.39172 1.15027,0.71079 1.24836,0.70904 0.0981,-0.002 -0.32018,-0.3225 -0.92947,-0.71278 z m -2.85339,-1.78337 c -1.44356,-0.92467 -1.70905,-0.92155 -0.3189,0.004 0.58851,0.39172 1.15028,0.71078 1.24836,0.70904 0.0981,-0.002 -0.32017,-0.3225 -0.92946,-0.71278 z m -2.8534,-1.78338 c -1.44355,-0.92466 -1.70905,-0.92155 -0.31889,0.004 0.58851,0.39172 1.15027,0.71078 1.24836,0.70904 0.0981,-0.002 -0.32018,-0.3225 -0.92947,-0.71279 z m -2.87572,-1.79756 c -0.62158,-0.39809 -1.16415,-0.68979 -1.20572,-0.64822 -0.0936,0.0936 1.9116,1.36676 2.15751,1.36981 0.0981,10e-4 -0.33022,-0.3235 -0.95179,-0.72159 z m -2.8534,-1.78337 c -0.62157,-0.3981 -1.16414,-0.68979 -1.20571,-0.64823 -0.0936,0.0936 1.9116,1.36677 2.15751,1.36982 0.0981,10e-4 -0.33022,-0.32351 -0.9518,-0.72159 z m -2.85339,-1.78338 c -0.62157,-0.39809 -1.16414,-0.68979 -1.20572,-0.64822 -0.0936,0.0936 1.9116,1.36677 2.15752,1.36982 0.0981,10e-4 -0.33023,-0.32351 -0.9518,-0.7216 z m -1.81243,-1.1159 c 0,-0.10175 -2.08862,-1.36294 -2.2561,-1.36231 -0.0833,3.1e-4 0.33006,0.32107 0.91857,0.71278 0.97438,0.64855 1.33753,0.82491 1.33753,0.64953 z m -5.70679,-3.58582 c 0,-0.0456 -0.18057,-0.17039 -0.40126,-0.27734 -0.38532,-0.18672 -0.3875,-0.18343 -0.0551,0.0829 0.36385,0.29151 0.45634,0.33092 0.45634,0.19445 z M 89.480322,261.76513 c -0.03017,-1.40365 -0.05492,-0.30504 -0.05501,2.44135 -9e-5,2.74639 0.02459,3.89484 0.05485,2.55209 0.03026,-1.34273 0.03033,-3.58978 1.64e-4,-4.99344 z m -0.301183,-26.18176 -0.163859,-3.83425 0.07628,4.72593 c 0.04195,2.59927 0.09563,7.7755 0.119285,11.50275 l 0.043,6.77681 0.04457,-7.66849 c 0.02452,-4.21768 -0.02916,-9.39391 -0.119286,-11.50275 z m -0.249131,3.34382 c -0.04947,-0.12261 -0.08995,-0.0223 -0.08995,0.22292 0,0.24522 0.04048,0.34553 0.08995,0.22292 0.04947,-0.1226 0.04947,-0.32323 0,-0.44584 z"
        id="path93" />
      <path
        style="fill:#2962FF;fill-opacity:1;stroke-width:0.178337"
        d="m 199.02425,349.9132 c -0.44138,-0.28185 -4.37371,-2.71607 -8.73852,-5.40938 -4.3648,-2.6933 -10.94544,-6.76633 -14.62364,-9.05117 -3.67821,-2.28484 -8.25255,-5.11884 -10.16522,-6.29779 -6.55186,-4.0385 -22.93929,-14.25933 -54.61575,-34.06381 L 79.181693,275.27222 v -43.91994 -43.91994 h 5.795957 5.795957 l 0.0052,41.1513 0.0052,41.15129 37.490203,23.85191 c 55.20546,35.12267 70.43825,44.74303 71.45093,45.12527 0.40654,0.15346 0.70225,0.0272 2.42241,-1.03461 3.11716,-1.92406 11.98332,-7.51441 26.30236,-16.58435 12.69911,-8.04384 22.25062,-14.11236 62.73009,-39.85533 l 18.05664,-11.48314 v -41.16117 -41.16117 h 0.71335 0.71335 v 41.45012 41.45013 l -22.06922,14.04615 c -59.31868,37.75392 -85.80821,54.71552 -87.75359,56.18979 -0.32522,0.24646 -0.54757,0.49186 -0.4941,0.54532 0.12825,0.12825 0.0735,0.1627 35.23697,-22.15527 7.80874,-4.95614 63.66515,-40.46374 70.62151,-44.8937 l 4.90427,-3.12314 0.045,-41.7547 0.045,-41.7547 h 3.7447 3.74471 l -0.004,43.38051 -0.004,43.38051 -59.03801,36.90058 -59.03803,36.90057 -0.75841,-0.36846 c -1.12775,-0.5479 -8.6533,-5.08628 -19.1008,-11.51898 -5.10045,-3.14042 -10.99895,-6.76684 -13.10778,-8.0587 -5.25731,-3.2206 -18.03505,-11.18198 -54.88326,-34.1959 l -31.431925,-19.63112 -0.02048,-10.98173 c -0.01126,-6.03995 -0.04956,-11.78424 -0.0851,-12.7651 -0.03554,-0.98085 -0.07649,-4.99344 -0.09101,-8.91686 -0.01558,-4.20956 -0.08492,-6.80454 -0.169191,-6.33097 -0.07854,0.44139 -0.148745,9.51558 -0.156015,20.16488 l -0.01322,19.36235 26.527651,16.56439 c 14.5902,9.11041 26.72828,16.6745 26.97349,16.80909 l 0.44584,0.24471 -0.43095,-0.32568 c -0.23703,-0.17913 -12.31491,-7.75892 -26.83974,-16.84398 l -26.408785,-16.51829 -0.0057,-3.81214 -0.0057,-3.81214 0.05546,3.65591 0.05546,3.65591 29.274975,18.27956 c 16.10124,10.05375 35.17874,21.95764 42.39445,26.45307 7.2157,4.49544 13.36022,8.33366 13.65448,8.52938 l 0.53501,0.35586 -0.49043,-0.0782 c -0.26974,-0.043 -0.49043,-0.0613 -0.49043,-0.0406 0,0.34911 33.3958,20.95674 33.96155,20.95674 0.11274,0 0.92388,-0.41214 1.80253,-0.91587 3.04948,-1.74825 34.27573,-21.17976 92.53589,-57.58336 l 24.98081,-15.60915 0.0449,-43.64337 0.0449,-43.64337 h 0.62418 0.62418 l -0.0449,43.9905 -0.0449,43.9905 -35.93494,22.4505 c -61.34762,38.32717 -83.78399,52.26513 -84.44263,52.45759 -0.22609,0.0661 -0.65051,-0.0834 -1.1592,-0.40823 z m 0.89169,-9.02662 c 0,-0.15055 -1.40452,-1.05009 -37.4508,-23.98577 C 152.70564,310.691 133.60573,298.535 120.0209,289.88748 89.997857,270.77612 89.772532,270.63386 90.149427,271.02856 c 0.166247,0.1741 15.616393,10.0339 52.307743,33.38119 8.36748,5.32437 15.17328,9.721 15.12398,9.77029 -0.099,0.099 -2.44205,-1.38214 -41.48367,-26.22287 l -27.018076,-17.1906 -0.09096,-12.64274 -0.09096,-12.64275 -0.04279,12.6891 -0.04279,12.68909 12.974036,8.24941 c 52.26809,33.23413 57.15188,36.33319 73.51948,46.65254 12.51463,7.89016 24.34207,15.21748 24.56595,15.21908 0.0245,1.8e-4 0.0446,-0.042 0.0446,-0.0937 z m -35.31075,-13.89013 c 0,-0.10327 -1.7595,-1.1755 -1.91981,-1.16992 -0.11855,0.004 1.74221,1.24379 1.86696,1.24379 0.0291,0 0.0529,-0.0332 0.0529,-0.0739 z m -3.51536,-2.24825 c -0.60929,-0.39029 -1.17105,-0.70801 -1.24836,-0.70606 -0.19838,0.005 1.96067,1.40264 2.17783,1.40979 0.0981,0.003 -0.32018,-0.31345 -0.92947,-0.70373 z m -2.85339,-1.78337 c -0.6093,-0.39029 -1.17106,-0.70801 -1.24836,-0.70606 -0.19839,0.005 1.96066,1.40264 2.17782,1.40979 0.0981,0.003 -0.32017,-0.31345 -0.92946,-0.70373 z m -2.8534,-1.78338 c -0.60929,-0.39028 -1.17105,-0.708 -1.24836,-0.70605 -0.19838,0.005 1.96067,1.40264 2.17783,1.40979 0.0981,0.003 -0.32018,-0.31345 -0.92947,-0.70374 z m -1.84962,-1.13387 c -0.24194,-0.22008 -2.12518,-1.35449 -2.12518,-1.28015 0,0.13033 1.83697,1.34775 2.03363,1.34775 0.0912,0 0.13242,-0.0304 0.0916,-0.0676 z m -2.85339,-1.78337 c -0.24194,-0.22008 -2.12519,-1.35449 -2.12519,-1.28015 0,0.13033 1.83698,1.34774 2.03364,1.34774 0.0912,0 0.13241,-0.0304 0.0915,-0.0676 z m -2.8534,-1.78337 c -0.24193,-0.22008 -2.12518,-1.3545 -2.12518,-1.28015 0,0.13033 1.83698,1.34774 2.03363,1.34774 0.0912,0 0.13242,-0.0304 0.0915,-0.0676 z m -2.85339,-1.78337 c -0.24194,-0.22008 -2.12519,-1.3545 -2.12519,-1.28016 0,0.13034 1.83698,1.34775 2.03364,1.34775 0.0912,0 0.13242,-0.0304 0.0916,-0.0676 z m -6.58362,-4.11706 c 0,-0.0456 -0.18056,-0.17039 -0.40125,-0.27734 -0.38532,-0.18673 -0.38751,-0.18343 -0.0551,0.0829 0.36386,0.29151 0.45634,0.33092 0.45634,0.19445 z m -1.42669,-0.89168 c 0,-0.0456 -0.18057,-0.1704 -0.40126,-0.27735 -0.38532,-0.18672 -0.38751,-0.18343 -0.0551,0.0829 0.36385,0.29151 0.45634,0.33091 0.45634,0.19445 z m -1.15919,-0.73837 c -0.45681,-0.35207 -0.98086,-0.64061 -0.98086,-0.54006 0,0.0906 1.11601,0.82159 1.24836,0.81763 0.049,-0.001 -0.0713,-0.12637 -0.2675,-0.27757 z M 89.479156,263.80522 c -0.03431,-0.66207 -0.06239,-0.12038 -0.06239,1.20378 0,1.32415 0.02808,1.86585 0.06239,1.20377 0.03431,-0.66207 0.03431,-1.74547 0,-2.40755 z m -0.177081,-21.6799 c -0.02868,-1.97966 -0.05211,-0.30907 -0.05206,3.71244 4.7e-5,4.0215 0.02351,5.64122 0.05215,3.59938 0.02863,-2.04184 0.02859,-5.33216 -8.4e-5,-7.31182 z m -0.366591,2.60122 c -0.04522,-0.17352 -0.08518,-0.0747 -0.08882,0.21953 -0.0036,0.29426 0.03336,0.43622 0.08221,0.31548 0.04885,-0.12074 0.05182,-0.36149 0.0066,-0.53501 z m 0.187311,-11.23863 c -0.03343,-0.76016 -0.06078,-0.13821 -0.06078,1.38211 0,1.52032 0.02735,2.14228 0.06078,1.38211 0.03343,-0.76016 0.03343,-2.00406 0,-2.76422 z"
        id="path94" />
      <path
        style="fill:#2962FF;fill-opacity:1;stroke-width:0.178337"
        d="m 218.28467,329.49242 c 0,-0.14012 1.26685,-0.85801 1.35629,-0.76858 0.049,0.0491 -0.18535,0.25883 -0.52086,0.46619 -0.59409,0.36716 -0.83543,0.45452 -0.83543,0.30239 z"
        id="path95" />
      <path
        style="fill:#2962FF;fill-opacity:1;stroke-width:0.0630517"
        d="m 200.87011,348.28499 c 0.10809,-0.10808 0.0938,-0.1648 -0.0473,-0.18792 -0.0778,-0.0127 5.19276,-3.34058 14.3285,-9.04715 7.94832,-4.96485 28.24799,-17.65285 45.11037,-28.19555 l 30.6589,-19.16854 -0.002,0.32669 -0.002,0.3267 -14.13702,8.82648 c -51.73315,32.29969 -75.69853,47.19496 -75.93319,47.19496 -0.0282,0 -0.0172,-0.034 0.0244,-0.0757 z"
        id="path96" />
      <path
        style="fill:#2962FF;fill-opacity:1;stroke-width:0.0630517"
        d="m 200.63052,340.8896 c 0,-0.079 4.8551,-3.26228 12.95712,-8.4954 3.46877,-2.24048 4.67139,-2.98748 4.6875,-2.91161 0.0167,0.0785 0.0672,0.093 0.21871,0.0626 0.11705,-0.0234 0.17224,-0.0165 0.13596,0.0169 -0.0803,0.074 -16.90283,10.74334 -17.69148,11.2204 -0.22762,0.13769 -0.30781,0.16558 -0.30781,0.10704 z"
        id="path97" />
      <path
        style="fill:#2962FF;fill-opacity:1;stroke-width:0.0630517"
        d="m 219.59332,328.87435 c 0.13318,-0.14354 0.0883,-0.19785 -0.12611,-0.15267 -0.33319,0.0702 -1.43299,0.79061 8.93758,-5.85434 9.38416,-6.01291 14.80559,-9.47053 36.91153,-23.54106 l 22.22047,-14.14343 h 0.44346 c 0.25526,0 0.41804,0.0233 0.38356,0.0548 -0.0549,0.0503 -6.88147,4.39113 -52.96028,33.67622 -8.63493,5.48788 -15.74243,9.99313 -15.79445,10.01167 -0.0766,0.0273 -0.0796,0.0175 -0.0158,-0.0512 z"
        id="path98" />
      <path
        style="fill:#2962FF;fill-opacity:1;stroke-width:0.178337"
        d="m 288.282,284.81706 c 0.29425,-0.19751 5.43036,-3.47654 11.41357,-7.28673 l 10.87857,-6.92761 0.0451,-31.68748 c 0.0298,-20.91761 0.10553,-31.68748 0.22292,-31.68748 0.11761,0 0.17508,10.76815 0.16966,31.7886 l -0.008,31.7886 -11.2365,7.13348 c -6.18008,3.92342 -11.41282,7.15694 -11.62831,7.18561 -0.33652,0.0448 -0.31631,10e-4 0.14321,-0.30699 z"
        id="path99" />
      <path
        style="fill:#2962FF;fill-opacity:1;stroke-width:0.178337"
        d="m 291.05019,291.90343 c 0.002,-0.12816 6.24175,-4.13427 13.86571,-8.90244 l 13.86175,-8.66942 0.0451,-33.5519 c 0.0297,-22.16054 0.10544,-33.55191 0.22292,-33.55191 0.11764,0 0.17787,11.40127 0.17787,33.67133 v 33.67132 l -13.40884,8.37166 c -16.26164,10.15277 -14.76932,9.247 -14.76446,8.96136 z"
        id="path100" />
      <path
        style="fill:#2962FF;fill-opacity:1;stroke-width:0.178337"
        d="m 310.66284,171.87242 c -2.6e-4,-19.44543 -0.0532,-36.98131 -0.11754,-38.96862 l -0.11707,-3.61328 -1.57715,-0.99515 c -0.86743,-0.54733 -1.53231,-1.06768 -1.47752,-1.15634 0.0548,-0.0887 0.55658,0.13176 1.11509,0.4898 0.55851,0.35805 1.39666,0.88616 1.86257,1.17359 l 0.8471,0.5226 -1.2e-4,24.10481 c -1.4e-4,28.78075 -0.1796,53.79793 -0.38592,53.79793 -0.0819,0 -0.14918,-15.9099 -0.14944,-35.35534 z"
        id="path101" />
      <path
        style="fill:#2962FF;fill-opacity:1;stroke-width:0.178337"
        d="m 318.82262,166.44057 -0.045,-40.78718 -5.61762,-3.5231 c -3.08969,-1.9377 -5.69202,-3.55082 -5.78295,-3.5847 -0.0909,-0.0339 -0.10914,-0.15253 -0.0405,-0.26365 0.0811,-0.13115 2.14172,1.06162 5.87212,3.39893 l 5.74724,3.60097 0.10839,6.86598 c 0.19178,12.14964 0.176,75.07994 -0.0188,75.07994 -0.11773,0 -0.19317,-13.80326 -0.22292,-40.78719 z"
        id="path102" />
      <path
        style="fill:#2962FF;fill-opacity:1;stroke-width:0.178337"
        d="m 311.01998,209.65018 c 0,-1.46195 -0.0628,-2.06138 -0.22292,-2.12597 -0.16261,-0.0656 -0.16517,-0.0938 -0.009,-0.10403 0.16022,-0.0106 0.21685,-1.31281 0.22698,-5.21964 0.007,-2.86305 0.0518,-5.24386 0.0986,-5.29067 0.0468,-0.0468 0.0851,3.25871 0.0851,7.34561 0,4.08689 -0.0401,7.43071 -0.0892,7.43071 -0.049,0 -0.0892,-0.91621 -0.0892,-2.03601 z"
        id="path103" />
      <path
        style="fill:#2962FF;fill-opacity:1;stroke-width:0.178337"
        d=""
        id="path104" />
      <path
        style="fill:#2962FF;fill-opacity:1;stroke-width:0.178337"
        d=""
        id="path105" />
      </svg>
